<svg xmlns="http://www.w3.org/2000/svg" viewBox="0.2 -166.1 1088.26 215.9">
  <path d="M74.2 2.6L74.2 2.6Q64.2 2.6 57 -1.3Q49.8 -5.2 45.3 -12.4Q40.8 -19.6 38.8 -29.6L38.8 -29.6L35.2 -29.6L35.4 0L14.2 0L14.2 -142L39.4 -142L39.4 -108.2Q39.4 -103.4 38.8 -97.8Q38.2 -92.2 37.2 -86.3Q36.2 -80.4 35 -74.4L35 -74.4L39.2 -74.4Q41.8 -84 46.1 -91.3Q50.4 -98.6 57.4 -102.8Q64.4 -107 74.6 -107L74.6 -107Q87.6 -107 97.1 -100.1Q106.6 -93.2 111.8 -80.9Q117 -68.6 117 -51.8L117 -51.8Q117 -35.4 111.9 -23.2Q106.8 -11 97.3 -4.2Q87.8 2.6 74.2 2.6M66.2 -18.2L66.2 -18.2Q73.6 -18.2 79.2 -22.4Q84.8 -26.6 87.7 -34.2Q90.6 -41.8 90.6 -52.2L90.6 -52.2Q90.6 -62.2 87.8 -69.8Q85 -77.4 79.6 -81.8Q74.2 -86.2 66.4 -86.2L66.4 -86.2Q61.2 -86.2 56.8 -84.1Q52.4 -82 49.2 -78.5Q46 -75 43.8 -70.8Q41.6 -66.6 40.5 -62.1Q39.4 -57.6 39.4 -53.8L39.4 -53.8L39.4 -50.4Q39.4 -45.4 41 -39.7Q42.6 -34 46 -29.2Q49.4 -24.4 54.4 -21.3Q59.4 -18.2 66.2 -18.2M178.6 35.8L178.6 35.8Q170.6 35.8 162.4 34.2Q154.2 32.6 147.1 29.3Q140 26 135.2 20.8L135.2 20.8L143.8 0Q149.6 6.6 158.8 10Q168 13.4 177.4 13.4L177.4 13.4Q188.4 13.4 195.6 8.9Q202.8 4.4 206.6 -5Q210.4 -14.4 210.8 -28.4L210.8 -28.4L212.2 -47.4L208 -47.4Q206 -33.8 201.4 -25.3Q196.8 -16.8 189.9 -12.9Q183 -9 173.8 -9L173.8 -9Q162.4 -9 154.6 -14.8Q146.8 -20.6 142.9 -32Q139 -43.4 139 -60.2L139 -60.2L139 -104.6L164.4 -104.6L164.4 -66Q164.4 -47.2 169 -38.7Q173.6 -30.2 183 -30.2L183 -30.2Q188 -30.2 192.2 -32.9Q196.4 -35.6 199.3 -40.7Q202.2 -45.8 203.9 -53.4Q205.6 -61 205.8 -70.8L205.8 -70.8L205.8 -104.6L231.2 -104.6L231.2 -27.4Q231.2 -14.8 229.1 -4.7Q227 5.4 222.8 12.9Q218.6 20.4 212.3 25.6Q206 30.8 197.6 33.3Q189.2 35.8 178.6 35.8" fill="#f4f4f2"/>
  <g transform="translate(351.04 -97.68) scale(0.4)">
    <path d="M296.17 105L284.99 98.54L273.8 92.09L262.62 85.63L251.44 79.17L240.25 72.71L229.07 66.26L217.89 59.8L206.7 53.34L195.52 46.89L184.34 40.43L173.15 33.97L161.97 27.52L150.79 21.06L139.6 14.6L128.42 8.14L117.23 1.69L106.05 -4.77L94.78 -11.18L80.92 -15.43L65.26 -15.95L50.64 -12.65L39.74 -6.13L34.54 2.42L36 11.44L43.85 19.29L55.01 25.76L66.19 32.22L77.37 38.67L88.56 45.13L99.74 51.59L110.93 58.04L122.11 64.5L133.29 70.96L144.48 77.42L155.66 83.87L166.84 90.33L177.72 96.95L187.49 104.13L196.01 111.82L203.21 119.95L209.03 128.43L213.4 137.21L216.29 146.18L217.68 155.27L217.54 164.4L215.88 173.48L212.71 182.42L208.07 191.15L201.99 199.58L194.54 207.63L185.79 215.23L175.8 222.3L164.69 228.79L152.54 234.64L139.47 239.78L125.61 244.17L111.09 247.77L96.02 250.55L80.57 252.47L64.87 253.53L49.06 253.71L33.3 253.02L17.72 251.45L2.48 249.02L-12.28 245.76L-26.44 241.69L-39.85 236.85L-52.39 231.3L-63.96 225.07L-75.14 218.62L-86.32 212.16L-97.51 205.7L-108.69 199.25L-119.87 192.79L-131.06 186.33L-142.24 179.88L-153.42 173.42L-164.61 166.96L-175.79 160.5L-186.97 154.05L-198.16 147.59L-209.34 141.13L-220.53 134.68L-231.71 128.22L-242.89 121.76L-254.08 115.3L-171.47 59L-160.28 65.46L-149.1 71.91L-137.92 78.37L-126.73 84.83L-115.55 91.29L-104.37 97.74L-93.18 104.2L-82 110.66L-70.82 117.11L-59.63 123.57L-48.45 130.03L-37.26 136.48L-26.08 142.94L-14.9 149.4L-3.71 155.86L7.47 162.31L18.65 168.77L29.92 175.18L43.78 179.43L59.45 179.95L74.07 176.65L84.97 170.13L90.16 161.58L88.7 152.56L80.85 144.71L69.7 138.24L58.51 131.78L47.33 125.33L36.15 118.87L24.96 112.41L13.78 105.96L2.6 99.5L-8.59 93.04L-19.77 86.58L-30.96 80.13L-42.14 73.67L-53.02 67.05L-62.78 59.87L-71.31 52.18L-78.51 44.05L-84.33 35.57L-88.7 26.79L-91.59 17.82L-92.97 8.73L-92.83 -0.4L-91.17 -9.48L-88.01 -18.42L-83.36 -27.15L-77.29 -35.58L-69.84 -43.63L-61.08 -51.23L-51.1 -58.3L-39.98 -64.79L-27.83 -70.64L-14.77 -75.78L-0.91 -80.17L13.62 -83.77L28.68 -86.55L44.13 -88.47L59.84 -89.53L75.64 -89.71L91.41 -89.02L106.98 -87.45L122.22 -85.02L136.99 -81.76L151.14 -77.69L164.55 -72.85L177.09 -67.3L188.66 -61.07L199.84 -54.62L211.03 -48.16L222.21 -41.7L233.39 -35.25L244.58 -28.79L255.76 -22.33L266.94 -15.88L278.13 -9.42L289.31 -2.96L300.5 3.5L311.68 9.95L322.86 16.41L334.05 22.87L345.23 29.32L356.41 35.78L367.6 42.24L378.78 48.7ZM284.99 52.54L296.17 59L296.17 105L284.99 98.54ZM273.8 46.09L284.99 52.54L284.99 98.54L273.8 92.09ZM262.62 39.63L273.8 46.09L273.8 92.09L262.62 85.63ZM251.44 33.17L262.62 39.63L262.62 85.63L251.44 79.17ZM240.25 26.71L251.44 33.17L251.44 79.17L240.25 72.71ZM229.07 20.26L240.25 26.71L240.25 72.71L229.07 66.26ZM217.89 13.8L229.07 20.26L229.07 66.26L217.89 59.8ZM206.7 7.34L217.89 13.8L217.89 59.8L206.7 53.34ZM195.52 0.89L206.7 7.34L206.7 53.34L195.52 46.89ZM184.34 -5.57L195.52 0.89L195.52 46.89L184.34 40.43ZM173.15 -12.03L184.34 -5.57L184.34 40.43L173.15 33.97ZM161.97 -18.48L173.15 -12.03L173.15 33.97L161.97 27.52ZM150.79 -24.94L161.97 -18.48L161.97 27.52L150.79 21.06ZM139.6 -31.4L150.79 -24.94L150.79 21.06L139.6 14.6ZM128.42 -37.86L139.6 -31.4L139.6 14.6L128.42 8.14ZM117.23 -44.31L128.42 -37.86L128.42 8.14L117.23 1.69ZM106.05 -50.77L117.23 -44.31L117.23 1.69L106.05 -4.77ZM94.78 -57.18L106.05 -50.77L106.05 -4.77L94.78 -11.18ZM80.92 -61.43L94.78 -57.18L94.78 -11.18L80.92 -15.43ZM65.26 -61.95L80.92 -61.43L80.92 -15.43L65.26 -15.95ZM50.64 -58.65L65.26 -61.95L65.26 -15.95L50.64 -12.65ZM39.74 -52.13L50.64 -58.65L50.64 -12.65L39.74 -6.13ZM34.54 -43.58L39.74 -52.13L39.74 -6.13L34.54 2.42ZM34.54 -43.58L36 -34.56L36 11.44L34.54 2.42ZM36 -34.56L43.85 -26.71L43.85 19.29L36 11.44ZM43.85 -26.71L55.01 -20.24L55.01 25.76L43.85 19.29ZM55.01 -20.24L66.19 -13.78L66.19 32.22L55.01 25.76ZM66.19 -13.78L77.37 -7.33L77.37 38.67L66.19 32.22ZM77.37 -7.33L88.56 -0.87L88.56 45.13L77.37 38.67ZM88.56 -0.87L99.74 5.59L99.74 51.59L88.56 45.13ZM99.74 5.59L110.93 12.04L110.93 58.04L99.74 51.59ZM110.93 12.04L122.11 18.5L122.11 64.5L110.93 58.04ZM122.11 18.5L133.29 24.96L133.29 70.96L122.11 64.5ZM133.29 24.96L144.48 31.42L144.48 77.42L133.29 70.96ZM144.48 31.42L155.66 37.87L155.66 83.87L144.48 77.42ZM155.66 37.87L166.84 44.33L166.84 90.33L155.66 83.87ZM166.84 44.33L177.72 50.95L177.72 96.95L166.84 90.33ZM177.72 50.95L187.49 58.13L187.49 104.13L177.72 96.95ZM187.49 58.13L196.01 65.82L196.01 111.82L187.49 104.13ZM196.01 65.82L203.21 73.95L203.21 119.95L196.01 111.82ZM203.21 73.95L209.03 82.43L209.03 128.43L203.21 119.95ZM209.03 82.43L213.4 91.21L213.4 137.21L209.03 128.43ZM213.4 91.21L216.29 100.18L216.29 146.18L213.4 137.21ZM216.29 100.18L217.68 109.27L217.68 155.27L216.29 146.18ZM217.54 118.4L217.68 109.27L217.68 155.27L217.54 164.4ZM215.88 127.48L217.54 118.4L217.54 164.4L215.88 173.48ZM212.71 136.42L215.88 127.48L215.88 173.48L212.71 182.42ZM208.07 145.15L212.71 136.42L212.71 182.42L208.07 191.15ZM201.99 153.58L208.07 145.15L208.07 191.15L201.99 199.58ZM194.54 161.63L201.99 153.58L201.99 199.58L194.54 207.63ZM185.79 169.23L194.54 161.63L194.54 207.63L185.79 215.23ZM175.8 176.3L185.79 169.23L185.79 215.23L175.8 222.3ZM164.69 182.79L175.8 176.3L175.8 222.3L164.69 228.79ZM152.54 188.64L164.69 182.79L164.69 228.79L152.54 234.64ZM139.47 193.78L152.54 188.64L152.54 234.64L139.47 239.78ZM125.61 198.17L139.47 193.78L139.47 239.78L125.61 244.17ZM111.09 201.77L125.61 198.17L125.61 244.17L111.09 247.77ZM96.02 204.55L111.09 201.77L111.09 247.77L96.02 250.55ZM80.57 206.47L96.02 204.55L96.02 250.55L80.57 252.47ZM64.87 207.53L80.57 206.47L80.57 252.47L64.87 253.53ZM49.06 207.71L64.87 207.53L64.87 253.53L49.06 253.71ZM33.3 207.02L49.06 207.71L49.06 253.71L33.3 253.02ZM17.72 205.45L33.3 207.02L33.3 253.02L17.72 251.45ZM2.48 203.02L17.72 205.45L17.72 251.45L2.48 249.02ZM-12.28 199.76L2.48 203.02L2.48 249.02L-12.28 245.76ZM-26.44 195.69L-12.28 199.76L-12.28 245.76L-26.44 241.69ZM-39.85 190.85L-26.44 195.69L-26.44 241.69L-39.85 236.85ZM-52.39 185.3L-39.85 190.85L-39.85 236.85L-52.39 231.3ZM-63.96 179.07L-52.39 185.3L-52.39 231.3L-63.96 225.07ZM-75.14 172.62L-63.96 179.07L-63.96 225.07L-75.14 218.62ZM-86.32 166.16L-75.14 172.62L-75.14 218.62L-86.32 212.16ZM-97.51 159.7L-86.32 166.16L-86.32 212.16L-97.51 205.7ZM-108.69 153.25L-97.51 159.7L-97.51 205.7L-108.69 199.25ZM-119.87 146.79L-108.69 153.25L-108.69 199.25L-119.87 192.79ZM-131.06 140.33L-119.87 146.79L-119.87 192.79L-131.06 186.33ZM-142.24 133.88L-131.06 140.33L-131.06 186.33L-142.24 179.88ZM-153.42 127.42L-142.24 133.88L-142.24 179.88L-153.42 173.42ZM-164.61 120.96L-153.42 127.42L-153.42 173.42L-164.61 166.96ZM-175.79 114.5L-164.61 120.96L-164.61 166.96L-175.79 160.5ZM-186.97 108.05L-175.79 114.5L-175.79 160.5L-186.97 154.05ZM-198.16 101.59L-186.97 108.05L-186.97 154.05L-198.16 147.59ZM-209.34 95.13L-198.16 101.59L-198.16 147.59L-209.34 141.13ZM-220.53 88.68L-209.34 95.13L-209.34 141.13L-220.53 134.68ZM-231.71 82.22L-220.53 88.68L-220.53 134.68L-231.71 128.22ZM-242.89 75.76L-231.71 82.22L-231.71 128.22L-242.89 121.76ZM-254.08 69.3L-242.89 75.76L-242.89 121.76L-254.08 115.3ZM-254.08 69.3L-171.47 13L-171.47 59L-254.08 115.3ZM-171.47 13L-160.28 19.46L-160.28 65.46L-171.47 59ZM-160.28 19.46L-149.1 25.91L-149.1 71.91L-160.28 65.46ZM-149.1 25.91L-137.92 32.37L-137.92 78.37L-149.1 71.91ZM-137.92 32.37L-126.73 38.83L-126.73 84.83L-137.92 78.37ZM-126.73 38.83L-115.55 45.29L-115.55 91.29L-126.73 84.83ZM-115.55 45.29L-104.37 51.74L-104.37 97.74L-115.55 91.29ZM-104.37 51.74L-93.18 58.2L-93.18 104.2L-104.37 97.74ZM-93.18 58.2L-82 64.66L-82 110.66L-93.18 104.2ZM-82 64.66L-70.82 71.11L-70.82 117.11L-82 110.66ZM-70.82 71.11L-59.63 77.57L-59.63 123.57L-70.82 117.11ZM-59.63 77.57L-48.45 84.03L-48.45 130.03L-59.63 123.57ZM-48.45 84.03L-37.26 90.48L-37.26 136.48L-48.45 130.03ZM-37.26 90.48L-26.08 96.94L-26.08 142.94L-37.26 136.48ZM-26.08 96.94L-14.9 103.4L-14.9 149.4L-26.08 142.94ZM-14.9 103.4L-3.71 109.86L-3.71 155.86L-14.9 149.4ZM-3.71 109.86L7.47 116.31L7.47 162.31L-3.71 155.86ZM7.47 116.31L18.65 122.77L18.65 168.77L7.47 162.31ZM18.65 122.77L29.92 129.18L29.92 175.18L18.65 168.77ZM29.92 129.18L43.78 133.43L43.78 179.43L29.92 175.18ZM43.78 133.43L59.45 133.95L59.45 179.95L43.78 179.43ZM59.45 133.95L74.07 130.65L74.07 176.65L59.45 179.95ZM74.07 130.65L84.97 124.13L84.97 170.13L74.07 176.65ZM84.97 124.13L90.16 115.58L90.16 161.58L84.97 170.13ZM88.7 106.56L90.16 115.58L90.16 161.58L88.7 152.56ZM80.85 98.71L88.7 106.56L88.7 152.56L80.85 144.71ZM69.7 92.24L80.85 98.71L80.85 144.71L69.7 138.24ZM58.51 85.78L69.7 92.24L69.7 138.24L58.51 131.78ZM47.33 79.33L58.51 85.78L58.51 131.78L47.33 125.33ZM36.15 72.87L47.33 79.33L47.33 125.33L36.15 118.87ZM24.96 66.41L36.15 72.87L36.15 118.87L24.96 112.41ZM13.78 59.96L24.96 66.41L24.96 112.41L13.78 105.96ZM2.6 53.5L13.78 59.96L13.78 105.96L2.6 99.5ZM-8.59 47.04L2.6 53.5L2.6 99.5L-8.59 93.04ZM-19.77 40.58L-8.59 47.04L-8.59 93.04L-19.77 86.58ZM-30.96 34.13L-19.77 40.58L-19.77 86.58L-30.96 80.13ZM-42.14 27.67L-30.96 34.13L-30.96 80.13L-42.14 73.67ZM-53.02 21.05L-42.14 27.67L-42.14 73.67L-53.02 67.05ZM-62.78 13.87L-53.02 21.05L-53.02 67.05L-62.78 59.87ZM-71.31 6.18L-62.78 13.87L-62.78 59.87L-71.31 52.18ZM-78.51 -1.95L-71.31 6.18L-71.31 52.18L-78.51 44.05ZM-84.33 -10.43L-78.51 -1.95L-78.51 44.05L-84.33 35.57ZM-88.7 -19.21L-84.33 -10.43L-84.33 35.57L-88.7 26.79ZM-91.59 -28.18L-88.7 -19.21L-88.7 26.79L-91.59 17.82ZM-92.97 -37.27L-91.59 -28.18L-91.59 17.82L-92.97 8.73ZM-92.97 -37.27L-92.83 -46.4L-92.83 -0.4L-92.97 8.73ZM-92.83 -46.4L-91.17 -55.48L-91.17 -9.48L-92.83 -0.4ZM-91.17 -55.48L-88.01 -64.42L-88.01 -18.42L-91.17 -9.48ZM-88.01 -64.42L-83.36 -73.15L-83.36 -27.15L-88.01 -18.42ZM-83.36 -73.15L-77.29 -81.58L-77.29 -35.58L-83.36 -27.15ZM-77.29 -81.58L-69.84 -89.63L-69.84 -43.63L-77.29 -35.58ZM-69.84 -89.63L-61.08 -97.23L-61.08 -51.23L-69.84 -43.63ZM-61.08 -97.23L-51.1 -104.3L-51.1 -58.3L-61.08 -51.23ZM-51.1 -104.3L-39.98 -110.79L-39.98 -64.79L-51.1 -58.3ZM-39.98 -110.79L-27.83 -116.64L-27.83 -70.64L-39.98 -64.79ZM-27.83 -116.64L-14.77 -121.78L-14.77 -75.78L-27.83 -70.64ZM-14.77 -121.78L-0.91 -126.17L-0.91 -80.17L-14.77 -75.78ZM-0.91 -126.17L13.62 -129.77L13.62 -83.77L-0.91 -80.17ZM13.62 -129.77L28.68 -132.55L28.68 -86.55L13.62 -83.77ZM28.68 -132.55L44.13 -134.47L44.13 -88.47L28.68 -86.55ZM44.13 -134.47L59.84 -135.53L59.84 -89.53L44.13 -88.47ZM59.84 -135.53L75.64 -135.71L75.64 -89.71L59.84 -89.53ZM75.64 -135.71L91.41 -135.02L91.41 -89.02L75.64 -89.71ZM91.41 -135.02L106.98 -133.45L106.98 -87.45L91.41 -89.02ZM106.98 -133.45L122.22 -131.02L122.22 -85.02L106.98 -87.45ZM122.22 -131.02L136.99 -127.76L136.99 -81.76L122.22 -85.02ZM136.99 -127.76L151.14 -123.69L151.14 -77.69L136.99 -81.76ZM151.14 -123.69L164.55 -118.85L164.55 -72.85L151.14 -77.69ZM164.55 -118.85L177.09 -113.3L177.09 -67.3L164.55 -72.85ZM177.09 -113.3L188.66 -107.07L188.66 -61.07L177.09 -67.3ZM188.66 -107.07L199.84 -100.62L199.84 -54.62L188.66 -61.07ZM199.84 -100.62L211.03 -94.16L211.03 -48.16L199.84 -54.62ZM211.03 -94.16L222.21 -87.7L222.21 -41.7L211.03 -48.16ZM222.21 -87.7L233.39 -81.25L233.39 -35.25L222.21 -41.7ZM233.39 -81.25L244.58 -74.79L244.58 -28.79L233.39 -35.25ZM244.58 -74.79L255.76 -68.33L255.76 -22.33L244.58 -28.79ZM255.76 -68.33L266.94 -61.88L266.94 -15.88L255.76 -22.33ZM266.94 -61.88L278.13 -55.42L278.13 -9.42L266.94 -15.88ZM278.13 -55.42L289.31 -48.96L289.31 -2.96L278.13 -9.42ZM289.31 -48.96L300.5 -42.5L300.5 3.5L289.31 -2.96ZM300.5 -42.5L311.68 -36.05L311.68 9.95L300.5 3.5ZM311.68 -36.05L322.86 -29.59L322.86 16.41L311.68 9.95ZM322.86 -29.59L334.05 -23.13L334.05 22.87L322.86 16.41ZM334.05 -23.13L345.23 -16.68L345.23 29.32L334.05 22.87ZM345.23 -16.68L356.41 -10.22L356.41 35.78L345.23 29.32ZM356.41 -10.22L367.6 -3.76L367.6 42.24L356.41 35.78ZM367.6 -3.76L378.78 2.7L378.78 48.7L367.6 42.24ZM296.17 59L378.78 2.7L378.78 48.7L296.17 105Z" fill="#f4f4f2"/>
    <path d="M296.17 59L292.44 56.85L288.72 54.7L284.99 52.54L281.26 50.39L277.53 48.24L273.8 46.09L270.08 43.93L266.35 41.78L262.62 39.63L258.89 37.48L255.17 35.32L251.44 33.17L247.71 31.02L243.98 28.87L240.25 26.71L236.53 24.56L232.8 22.41L229.07 20.26L225.34 18.11L221.61 15.95L217.89 13.8L214.16 11.65L210.43 9.5L206.7 7.34L202.98 5.19L199.25 3.04L195.52 0.89L191.79 -1.27L188.06 -3.42L184.34 -5.57L180.61 -7.72L176.88 -9.88L173.15 -12.03L169.42 -14.18L165.7 -16.33L161.97 -18.48L158.24 -20.64L154.51 -22.79L150.79 -24.94L147.06 -27.09L143.33 -29.25L139.6 -31.4L135.87 -33.55L132.15 -35.7L128.42 -37.86L124.69 -40.01L120.96 -42.16L117.23 -44.31L113.51 -46.47L109.78 -48.62L106.05 -50.77L102.32 -52.92L98.6 -55.07L94.78 -57.18L90.53 -58.97L85.88 -60.4L80.92 -61.43L75.76 -62.04L70.5 -62.21L65.26 -61.95L60.13 -61.26L55.22 -60.15L50.64 -58.65L46.48 -56.79L42.82 -54.6L39.74 -52.13L37.3 -49.44L35.56 -46.57L34.54 -43.58L34.28 -40.55L34.77 -37.52L36 -34.56L37.96 -31.74L40.59 -29.1L43.85 -26.71L47.55 -24.55L51.28 -22.39L55.01 -20.24L58.73 -18.09L62.46 -15.94L66.19 -13.78L69.92 -11.63L73.65 -9.48L77.37 -7.33L81.1 -5.17L84.83 -3.02L88.56 -0.87L92.29 1.28L96.01 3.44L99.74 5.59L103.47 7.74L107.2 9.89L110.93 12.04L114.65 14.2L118.38 16.35L122.11 18.5L125.84 20.65L129.56 22.81L133.29 24.96L137.02 27.11L140.75 29.26L144.48 31.42L148.2 33.57L151.93 35.72L155.66 37.87L159.39 40.03L163.12 42.18L166.84 44.33L170.57 46.48L174.21 48.69L177.72 50.95L181.11 53.29L184.37 55.68L187.49 58.13L190.47 60.64L193.31 63.21L196.01 65.82L198.56 68.48L200.97 71.19L203.21 73.95L205.31 76.74L207.25 79.57L209.03 82.43L210.65 85.33L212.11 88.26L213.4 91.21L214.53 94.18L215.5 97.17L216.29 100.18L216.92 103.2L217.38 106.23L217.68 109.27L217.8 112.32L217.75 115.36L217.54 118.4L217.15 121.44L216.6 124.46L215.88 127.48L214.99 130.48L213.93 133.46L212.71 136.42L211.32 139.36L209.78 142.27L208.07 145.15L206.2 147.99L204.17 150.8L201.99 153.58L199.66 156.3L197.18 158.99L194.54 161.63L191.77 164.21L188.85 166.75L185.79 169.23L182.59 171.65L179.26 174.01L175.8 176.3L172.22 178.54L168.51 180.7L164.69 182.79L160.75 184.82L156.69 186.76L152.54 188.64L148.28 190.43L143.92 192.15L139.47 193.78L134.94 195.33L130.31 196.79L125.61 198.17L120.84 199.46L115.99 200.66L111.09 201.77L106.12 202.79L101.1 203.71L96.02 204.55L90.91 205.28L85.76 205.93L80.57 206.47L75.36 206.92L70.12 207.28L64.87 207.53L59.6 207.69L54.33 207.75L49.06 207.71L43.79 207.58L38.54 207.35L33.3 207.02L28.08 206.59L22.88 206.07L17.72 205.45L12.6 204.73L7.52 203.92L2.48 203.02L-2.5 202.03L-7.42 200.94L-12.28 199.76L-17.08 198.49L-21.79 197.13L-26.44 195.69L-30.99 194.16L-35.47 192.55L-39.85 190.85L-44.13 189.08L-48.31 187.23L-52.39 185.3L-56.35 183.29L-60.21 181.22L-63.96 179.07L-67.68 176.92L-71.41 174.77L-75.14 172.62L-78.87 170.47L-82.59 168.31L-86.32 166.16L-90.05 164.01L-93.78 161.86L-97.51 159.7L-101.23 157.55L-104.96 155.4L-108.69 153.25L-112.42 151.09L-116.15 148.94L-119.87 146.79L-123.6 144.64L-127.33 142.48L-131.06 140.33L-134.78 138.18L-138.51 136.03L-142.24 133.88L-145.97 131.72L-149.7 129.57L-153.42 127.42L-157.15 125.27L-160.88 123.11L-164.61 120.96L-168.34 118.81L-172.06 116.66L-175.79 114.5L-179.52 112.35L-183.25 110.2L-186.97 108.05L-190.7 105.89L-194.43 103.74L-198.16 101.59L-201.89 99.44L-205.61 97.29L-209.34 95.13L-213.07 92.98L-216.8 90.83L-220.53 88.68L-224.25 86.52L-227.98 84.37L-231.71 82.22L-235.44 80.07L-239.16 77.91L-242.89 75.76L-246.62 73.61L-250.35 71.46L-254.08 69.3L-257.8 67.15L-261.53 65L-171.47 13L-167.74 15.15L-164.01 17.3L-160.28 19.46L-156.56 21.61L-152.83 23.76L-149.1 25.91L-145.37 28.07L-141.65 30.22L-137.92 32.37L-134.19 34.52L-130.46 36.68L-126.73 38.83L-123.01 40.98L-119.28 43.13L-115.55 45.29L-111.82 47.44L-108.09 49.59L-104.37 51.74L-100.64 53.89L-96.91 56.05L-93.18 58.2L-89.45 60.35L-85.73 62.5L-82 64.66L-78.27 66.81L-74.54 68.96L-70.82 71.11L-67.09 73.27L-63.36 75.42L-59.63 77.57L-55.9 79.72L-52.18 81.88L-48.45 84.03L-44.72 86.18L-40.99 88.33L-37.26 90.48L-33.54 92.64L-29.81 94.79L-26.08 96.94L-22.35 99.09L-18.63 101.25L-14.9 103.4L-11.17 105.55L-7.44 107.7L-3.71 109.86L0.01 112.01L3.74 114.16L7.47 116.31L11.2 118.47L14.93 120.62L18.65 122.77L22.38 124.92L26.11 127.07L29.92 129.18L34.17 130.97L38.82 132.4L43.78 133.43L48.94 134.04L54.2 134.21L59.45 133.95L64.58 133.26L69.48 132.15L74.07 130.65L78.23 128.79L81.89 126.6L84.97 124.13L87.4 121.44L89.15 118.57L90.16 115.58L90.42 112.55L89.93 109.52L88.7 106.56L86.75 103.74L84.11 101.1L80.85 98.71L77.15 96.55L73.42 94.39L69.7 92.24L65.97 90.09L62.24 87.94L58.51 85.78L54.79 83.63L51.06 81.48L47.33 79.33L43.6 77.17L39.87 75.02L36.15 72.87L32.42 70.72L28.69 68.56L24.96 66.41L21.23 64.26L17.51 62.11L13.78 59.96L10.05 57.8L6.32 55.65L2.6 53.5L-1.13 51.35L-4.86 49.19L-8.59 47.04L-12.32 44.89L-16.04 42.74L-19.77 40.58L-23.5 38.43L-27.23 36.28L-30.96 34.13L-34.68 31.97L-38.41 29.82L-42.14 27.67L-45.86 25.52L-49.5 23.31L-53.02 21.05L-56.41 18.71L-59.66 16.32L-62.78 13.87L-65.77 11.36L-68.61 8.79L-71.31 6.18L-73.86 3.52L-76.26 0.81L-78.51 -1.95L-80.61 -4.74L-82.55 -7.57L-84.33 -10.43L-85.95 -13.33L-87.4 -16.26L-88.7 -19.21L-89.83 -22.18L-90.79 -25.17L-91.59 -28.18L-92.22 -31.2L-92.68 -34.23L-92.97 -37.27L-93.09 -40.32L-93.05 -43.36L-92.83 -46.4L-92.45 -49.44L-91.89 -52.46L-91.17 -55.48L-90.28 -58.48L-89.23 -61.46L-88.01 -64.42L-86.62 -67.36L-85.07 -70.27L-83.36 -73.15L-81.5 -75.99L-79.47 -78.8L-77.29 -81.58L-74.96 -84.3L-72.47 -86.99L-69.84 -89.63L-67.06 -92.21L-64.14 -94.75L-61.08 -97.23L-57.89 -99.65L-54.56 -102.01L-51.1 -104.3L-47.51 -106.54L-43.81 -108.7L-39.98 -110.79L-36.04 -112.82L-31.99 -114.76L-27.83 -116.64L-23.58 -118.43L-19.22 -120.15L-14.77 -121.78L-10.23 -123.33L-5.61 -124.79L-0.91 -126.17L3.87 -127.46L8.71 -128.66L13.62 -129.77L18.59 -130.79L23.61 -131.71L28.68 -132.55L33.79 -133.28L38.95 -133.93L44.13 -134.47L49.35 -134.92L54.58 -135.28L59.84 -135.53L65.1 -135.69L70.37 -135.75L75.64 -135.71L80.91 -135.58L86.17 -135.35L91.41 -135.02L96.63 -134.59L101.82 -134.07L106.98 -133.45L112.11 -132.73L117.19 -131.92L122.22 -131.02L127.2 -130.03L132.13 -128.94L136.99 -127.76L141.78 -126.49L146.5 -125.13L151.14 -123.69L155.7 -122.16L160.17 -120.55L164.55 -118.85L168.83 -117.08L173.01 -115.23L177.09 -113.3L181.06 -111.29L184.91 -109.22L188.66 -107.07L192.39 -104.92L196.11 -102.77L199.84 -100.62L203.57 -98.47L207.3 -96.31L211.03 -94.16L214.75 -92.01L218.48 -89.86L222.21 -87.7L225.94 -85.55L229.67 -83.4L233.39 -81.25L237.12 -79.09L240.85 -76.94L244.58 -74.79L248.3 -72.64L252.03 -70.48L255.76 -68.33L259.49 -66.18L263.22 -64.03L266.94 -61.88L270.67 -59.72L274.4 -57.57L278.13 -55.42L281.86 -53.27L285.58 -51.11L289.31 -48.96L293.04 -46.81L296.77 -44.66L300.5 -42.5L304.22 -40.35L307.95 -38.2L311.68 -36.05L315.41 -33.89L319.13 -31.74L322.86 -29.59L326.59 -27.44L330.32 -25.29L334.05 -23.13L337.77 -20.98L341.5 -18.83L345.23 -16.68L348.96 -14.52L352.69 -12.37L356.41 -10.22L360.14 -8.07L363.87 -5.91L367.6 -3.76L371.32 -1.61L375.05 0.54L378.78 2.7L382.51 4.85L386.24 7Z" fill="#111110" stroke="#f4f4f2" stroke-width="9" stroke-linejoin="round"/>
  </g>
  <g transform="translate(512.46 0)">
    <path d="M38.4 2.6L38.4 2.6Q29.8 2.6 23 -0.7Q16.2 -4 12.3 -10.6Q8.4 -17.2 8.4 -27L8.4 -27Q8.4 -35.2 11.5 -41Q14.6 -46.8 20.8 -50.5Q27 -54.2 36.2 -56.7Q45.4 -59.2 57.8 -61L57.8 -61Q64.6 -62 68.9 -63Q73.2 -64 75.2 -66.1Q77.2 -68.2 77.2 -72.4L77.2 -72.4Q77.2 -78.6 72.9 -83.1Q68.6 -87.6 59 -87.6L59 -87.6Q53.2 -87.6 47.9 -85.6Q42.6 -83.6 38.8 -79.3Q35 -75 33.6 -68L33.6 -68L11 -75Q13.2 -83 17.4 -88.9Q21.6 -94.8 27.8 -99Q34 -103.2 42 -105.2Q50 -107.2 59.6 -107.2L59.6 -107.2Q74.2 -107.2 83.6 -102.5Q93 -97.8 97.6 -87.9Q102.2 -78 102.2 -62.4L102.2 -62.4L102.2 -42.8Q102.2 -36 102.5 -28.7Q102.8 -21.4 103.3 -14.1Q103.8 -6.8 104.6 0L104.6 0L82 0Q81.2 -5.6 80.6 -12Q80 -18.4 79.6 -25L79.6 -25L76.4 -25Q73.6 -17.4 68.4 -11.1Q63.2 -4.8 55.7 -1.1Q48.2 2.6 38.4 2.6M48.4 -16L48.4 -16Q52.4 -16 56.5 -17.4Q60.6 -18.8 64.6 -21.6Q68.6 -24.4 72 -28.5Q75.4 -32.6 77.8 -38.2L77.8 -38.2L77.4 -52.2Q75.8 -51.4 73.8 -50.8L73.8 -50.8Q68.8 -49.2 63.3 -48.4Q57.8 -47.6 52.3 -46.5Q46.8 -45.4 42.4 -43.7Q38 -42 35.4 -38.9Q32.8 -35.8 32.8 -30.4L32.8 -30.4Q32.8 -23.6 37.2 -19.8Q41.6 -16 48.4 -16M154.6 0L129.4 0L129.4 -104.6L150.4 -104.6L149.8 -72.6L153.4 -72.6Q156.2 -84.4 160.9 -92Q165.6 -99.6 173 -103.4Q180.4 -107.2 190.2 -107.2L190.2 -107.2Q208 -107.2 217.3 -94.6Q226.6 -82 226.6 -55.6L226.6 -55.6L226.6 0L201.2 0L201.2 -53Q201.2 -70 196.1 -77.9Q191 -85.8 181 -85.8L181 -85.8Q172.6 -85.8 166.8 -80.5Q161 -75.2 157.9 -66.5Q154.8 -57.8 154.6 -47.4L154.6 -47.4L154.6 0M290.6 2.6L290.6 2.6Q277.4 2.6 267.7 -4.2Q258 -11 252.8 -23.3Q247.6 -35.6 247.6 -52.4L247.6 -52.4Q247.6 -68.2 252.4 -80.5Q257.2 -92.8 266.5 -99.9Q275.8 -107 289.6 -107L289.6 -107Q300.2 -107 307.1 -102.9Q314 -98.8 318.4 -91.5Q322.8 -84.2 325.4 -74.4L325.4 -74.4L329.6 -74.4Q328.4 -80.6 327.4 -86.8Q326.4 -93 325.7 -98.7Q325 -104.4 325 -109L325 -109L325 -142L350.4 -142L350.4 0L329 0L329.4 -29.6L325.6 -29.6Q323.4 -19.2 318.8 -12Q314.2 -4.8 307.3 -1.1Q300.4 2.6 290.6 2.6M298.6 -18.2L298.6 -18.2Q305.2 -18.2 310.2 -21.3Q315.2 -24.4 318.5 -29.2Q321.8 -34 323.5 -39.7Q325.2 -45.4 325.2 -50.4L325.2 -50.4L325.2 -53.8Q325.2 -57.6 324.1 -62Q323 -66.4 320.9 -70.7Q318.8 -75 315.5 -78.5Q312.2 -82 307.9 -84.1Q303.6 -86.2 298.4 -86.2L298.4 -86.2Q290.6 -86.2 285.2 -81.8Q279.8 -77.4 276.9 -69.8Q274 -62.2 274 -52Q274 -41.8 277 -34.2Q280 -26.6 285.5 -22.4Q291 -18.2 298.6 -18.2M404 0L378.8 0L378.8 -104.6L400 -104.6L399.6 -68.6L403.2 -68.6Q405 -81.4 408.8 -89.9Q412.6 -98.4 419.4 -102.7Q426.2 -107 436.2 -107L436.2 -107Q438.2 -107 440.5 -106.8Q442.8 -106.6 445.6 -105.8L445.6 -105.8L444.6 -79.2Q441.4 -80.4 438.1 -80.9Q434.8 -81.4 432 -81.4L432 -81.4Q424.2 -81.4 418.5 -77.4Q412.8 -73.4 409.3 -66.1Q405.8 -58.8 404 -48.8L404 -48.8L404 0M509.6 2.6L509.6 2.6Q494.2 2.6 482.4 -3.7Q470.6 -10 463.9 -22.3Q457.2 -34.6 457.2 -52.6L457.2 -52.6Q457.2 -71 464.1 -83.1Q471 -95.2 482.8 -101.2Q494.6 -107.2 509.4 -107.2L509.4 -107.2Q524.8 -107.2 536.6 -101Q548.4 -94.8 555.2 -82.5Q562 -70.2 562 -52L562 -52Q562 -33.6 555.2 -21.4Q548.4 -9.2 536.5 -3.3Q524.6 2.6 509.6 2.6M510.6 -16.6L510.6 -16.6Q519 -16.6 524.8 -20.5Q530.6 -24.4 533.7 -32.2Q536.8 -40 536.8 -50.8L536.8 -50.8Q536.8 -62.2 533.5 -70.3Q530.2 -78.4 524.1 -82.8Q518 -87.2 508.8 -87.2L508.8 -87.2Q500.8 -87.2 494.8 -83.3Q488.8 -79.4 485.7 -71.8Q482.6 -64.2 482.6 -53L482.6 -53Q482.6 -35.4 490.1 -26Q497.6 -16.6 510.6 -16.6" fill="#f4f4f2"/>
  </g>
</svg>
